<svg width="245" height="250" viewBox="0 0 245 250" fill="none" xmlns="http://www.w3.org/2000/svg">
<path d="M244.688 127.813C244.688 119.583 243.958 111.771 242.708 104.167H125V151.146H192.396C189.375 166.563 180.521 179.583 167.396 188.438V219.688H207.604C231.146 197.917 244.688 165.833 244.688 127.813Z" fill="#4285F4"/>
<path d="M125 250C158.75 250 186.979 238.75 207.604 219.688L167.396 188.438C156.146 195.938 141.875 200.521 125 200.521C92.3958 200.521 64.7917 178.542 54.8958 148.854H13.4375V181.042C33.9583 221.875 76.1458 250 125 250Z" fill="#34A853"/>
<path d="M54.8958 148.854C52.2917 141.354 50.9375 133.333 50.9375 125C50.9375 116.667 52.3958 108.646 54.8958 101.146V68.9583H13.4375C4.89583 85.8333 0 104.792 0 125C0 145.208 4.89583 164.167 13.4375 181.042L54.8958 148.854Z" fill="#FBBC05"/>
<path d="M125 49.4792C143.438 49.4792 159.896 55.8333 172.917 68.2292L208.542 32.6042C186.979 12.3958 158.75 0 125 0C76.1458 0 33.9583 28.125 13.4375 68.9583L54.8958 101.146C64.7917 71.4583 92.3958 49.4792 125 49.4792Z" fill="#EA4335"/>
</svg>
