<svg width="250" height="250" viewBox="0 0 250 250" fill="none" xmlns="http://www.w3.org/2000/svg">
<path d="M125.002 0C55.9669 0 0 55.9654 0 125.001C0 194.039 55.9669 250 125.002 250C194.045 250 250.006 194.039 250.006 125.001C250.006 55.9699 194.045 0.00597072 125.001 0.00597072L125.002 0ZM182.327 180.287C180.088 183.959 175.282 185.123 171.61 182.869C142.261 164.942 105.314 160.882 61.8018 170.823C57.6088 171.779 53.4293 169.151 52.474 164.957C51.5142 160.763 54.1309 156.583 58.3343 155.628C105.951 144.749 146.795 149.433 179.745 169.569C183.417 171.823 184.581 176.615 182.327 180.287ZM197.628 146.251C194.806 150.836 188.806 152.284 184.223 149.463C150.623 128.81 99.4041 122.829 59.6613 134.893C54.507 136.45 49.0632 133.545 47.4988 128.4C45.9465 123.245 48.8527 117.812 53.998 116.245C99.3952 102.47 155.832 109.142 194.418 132.854C199.001 135.675 200.449 141.674 197.628 146.251ZM198.941 110.808C158.653 86.879 92.184 84.6788 53.7189 96.3531C47.5421 98.2264 41.0101 94.7395 39.1383 88.5627C37.2665 82.383 40.7504 75.8555 46.9316 73.9777C91.0869 60.5733 164.49 63.1631 210.874 90.6988C216.441 93.9961 218.262 101.171 214.964 106.72C211.68 112.276 204.485 114.107 198.947 110.808H198.941Z" fill="#1DB954"/>
<path d="M198.941 110.808C158.653 86.879 92.184 84.6788 53.7189 96.3531C47.5421 98.2264 41.0101 94.7395 39.1383 88.5627C37.2665 82.383 40.7504 75.8555 46.9316 73.9777C91.0869 60.5733 164.49 63.1631 210.874 90.6988C216.441 93.9961 218.262 101.171 214.964 106.72C211.68 112.276 204.485 114.107 198.947 110.808H198.941Z" fill="#191414"/>
<path d="M197.628 146.251C194.806 150.836 188.806 152.284 184.223 149.463C150.623 128.81 99.4041 122.829 59.6613 134.893C54.507 136.45 49.0632 133.545 47.4988 128.4C45.9465 123.245 48.8527 117.812 53.998 116.245C99.3952 102.47 155.832 109.142 194.418 132.854C199.001 135.675 200.449 141.674 197.628 146.251Z" fill="#191414"/>
<path d="M182.327 180.287C180.088 183.959 175.282 185.123 171.61 182.869C142.261 164.942 105.314 160.882 61.8018 170.823C57.6088 171.779 53.4293 169.151 52.474 164.957C51.5142 160.763 54.1309 156.583 58.3343 155.628C105.951 144.749 146.795 149.433 179.745 169.569C183.417 171.823 184.581 176.615 182.327 180.287Z" fill="#191414"/>
</svg>
