<svg width="358" height="250" viewBox="0 0 358 250" fill="none" xmlns="http://www.w3.org/2000/svg">
<path fill-rule="evenodd" clip-rule="evenodd" d="M318.085 7.46707C333.46 11.5828 345.544 23.6654 349.659 39.0405C357.096 66.8802 357.126 125 357.126 125C357.126 125 357.126 183.12 349.659 210.96C345.544 226.335 333.46 238.417 318.085 242.533C290.246 250 178.562 250 178.562 250C178.562 250 66.8802 250 39.0404 242.533C23.6654 238.417 11.5828 226.335 7.46707 210.96C1.90735e-06 183.12 0 125 0 125C0 125 1.90735e-06 66.8802 7.46707 39.0405C11.5828 23.6654 23.6654 11.5828 39.0404 7.46707C66.8802 2.38419e-06 178.562 0 178.562 0C178.562 0 290.246 2.38419e-06 318.085 7.46707ZM235.596 125.005L142.816 178.568V71.4416L235.596 125.005Z" fill="#FF0000"/>
<path d="M142.816 178.568L235.596 125.005L142.816 71.4416V178.568Z" fill="white"/>
</svg>
